<svg width="478" height="499" viewBox="0 0 478 499" fill="none" xmlns="http://www.w3.org/2000/svg">
<circle cx="68.5" cy="249.5" r="68.5" fill="#9B5EFF"/>
<circle cx="68.5" cy="430.5" r="68.5" fill="#95BBB7"/>
<circle cx="68.5" cy="68.5" r="68.5" fill="#E19D5E"/>
<line x1="156" y1="67" x2="236" y2="67" stroke="white" stroke-width="2" stroke-linecap="round"/>
<line x1="156" y1="249" x2="236" y2="249" stroke="white" stroke-width="2" stroke-linecap="round"/>
<line x1="156" y1="430" x2="236" y2="430" stroke="white" stroke-width="2" stroke-linecap="round"/>
<path d="M262.109 49.7695L258.643 61H254.961L260.186 46.7812H262.52L262.109 49.7695ZM264.98 61L261.504 49.7695L261.055 46.7812H263.418L268.672 61H264.98ZM264.844 55.6973V58.3438H257.549V55.6973H264.844ZM269.117 46.7812H274.712C275.806 46.7812 276.757 46.944 277.564 47.2695C278.371 47.5951 278.993 48.0768 279.429 48.7148C279.872 49.3529 280.093 50.1406 280.093 51.0781C280.093 51.8919 279.966 52.5723 279.712 53.1191C279.459 53.666 279.104 54.1185 278.648 54.4766C278.199 54.8281 277.675 55.1178 277.076 55.3457L275.953 55.9805H271.255L271.236 53.334H274.712C275.149 53.334 275.51 53.2559 275.796 53.0996C276.083 52.9434 276.298 52.722 276.441 52.4355C276.591 52.1426 276.666 51.7943 276.666 51.3906C276.666 50.9805 276.591 50.6289 276.441 50.3359C276.291 50.043 276.07 49.8184 275.777 49.6621C275.49 49.5059 275.136 49.4277 274.712 49.4277H272.545V61H269.117V46.7812ZM276.9 61L273.755 54.7109L277.388 54.6914L280.572 60.8535V61H276.9ZM287.96 46.7812V61H284.532V46.7812H287.96ZM292.237 46.7812V49.4277H280.353V46.7812H292.237ZM296.735 46.7812V61H293.317V46.7812H296.735ZM301.975 46.7812V61H298.547V46.7812H301.975ZM307.502 52.6992V55.3359H300.998V52.6992H307.502ZM308.059 46.7812V49.4277H300.998V46.7812H308.059ZM312.527 46.7812V61H309.109V46.7812H312.527ZM322.425 56.1855H325.843C325.798 57.1751 325.531 58.0475 325.043 58.8027C324.554 59.5579 323.877 60.1471 323.011 60.5703C322.152 60.987 321.136 61.1953 319.964 61.1953C319.014 61.1953 318.164 61.0358 317.416 60.7168C316.673 60.3978 316.042 59.9388 315.521 59.3398C315.007 58.7409 314.613 58.015 314.339 57.1621C314.073 56.3092 313.939 55.349 313.939 54.2812V53.5098C313.939 52.4421 314.079 51.4818 314.359 50.6289C314.645 49.7695 315.049 49.0404 315.57 48.4414C316.097 47.8359 316.729 47.3737 317.464 47.0547C318.2 46.7357 319.017 46.5762 319.916 46.5762C321.153 46.5762 322.198 46.7975 323.05 47.2402C323.903 47.6829 324.564 48.2917 325.033 49.0664C325.502 49.8346 325.778 50.7103 325.863 51.6934H322.445C322.432 51.1595 322.341 50.7135 322.171 50.3555C322.002 49.9909 321.735 49.7174 321.371 49.5352C321.006 49.3529 320.521 49.2617 319.916 49.2617C319.492 49.2617 319.125 49.3398 318.812 49.4961C318.5 49.6523 318.239 49.8997 318.031 50.2383C317.823 50.5768 317.666 51.0163 317.562 51.5566C317.464 52.0905 317.416 52.735 317.416 53.4902V54.2812C317.416 55.0365 317.461 55.681 317.552 56.2148C317.643 56.7487 317.79 57.1849 317.992 57.5234C318.194 57.862 318.454 58.1126 318.773 58.2754C319.099 58.4316 319.496 58.5098 319.964 58.5098C320.485 58.5098 320.925 58.4284 321.283 58.2656C321.641 58.0964 321.918 57.8424 322.113 57.5039C322.308 57.1589 322.412 56.7194 322.425 56.1855ZM330.507 46.7812V61H327.089V46.7812H330.507ZM338.52 49.7695L335.054 61H331.372L336.596 46.7812H338.93L338.52 49.7695ZM341.391 61L337.915 49.7695L337.466 46.7812H339.829L345.083 61H341.391ZM341.255 55.6973V58.3438H333.96V55.6973H341.255ZM354.922 58.3633V61H347.735V58.3633H354.922ZM348.955 46.7812V61H345.528V46.7812H348.955ZM259.727 69.7812V84H256.309V69.7812H259.727ZM273.414 69.7812V84H269.996L264.966 75.1523V84H261.539V69.7812H264.966L269.996 78.6289V69.7812H273.414ZM281.573 69.7812V84H278.146V69.7812H281.573ZM285.851 69.7812V72.4277H273.966V69.7812H285.851ZM296.491 81.3633V84H288.913V81.3633H296.491ZM290.134 69.7812V84H286.706V69.7812H290.134ZM295.514 75.4258V77.9746H288.913V75.4258H295.514ZM296.52 69.7812V72.4277H288.913V69.7812H296.52ZM306.692 81.3633V84H299.504V81.3633H306.692ZM300.725 69.7812V84H297.297V69.7812H300.725ZM311.18 69.7812V84H307.762V69.7812H311.18ZM324.623 76.4023V82.2422C324.382 82.5091 324.011 82.7956 323.509 83.1016C323.015 83.401 322.39 83.6582 321.634 83.873C320.879 84.0879 319.99 84.1953 318.968 84.1953C318.024 84.1953 317.168 84.0456 316.4 83.7461C315.632 83.4401 314.971 82.9941 314.418 82.4082C313.871 81.8158 313.448 81.0931 313.148 80.2402C312.855 79.3809 312.709 78.3978 312.709 77.291V76.5C312.709 75.3932 312.858 74.4102 313.158 73.5508C313.457 72.6914 313.877 71.9688 314.418 71.3828C314.964 70.7904 315.606 70.3411 316.341 70.0352C317.084 69.7292 317.897 69.5762 318.783 69.5762C320.091 69.5762 321.156 69.7845 321.976 70.2012C322.796 70.6113 323.418 71.181 323.841 71.9102C324.265 72.6328 324.522 73.4694 324.613 74.4199H321.322C321.257 73.9512 321.133 73.554 320.951 73.2285C320.775 72.8965 320.521 72.6458 320.189 72.4766C319.857 72.3008 319.427 72.2129 318.9 72.2129C318.49 72.2129 318.115 72.3008 317.777 72.4766C317.445 72.6523 317.162 72.9193 316.927 73.2773C316.693 73.6289 316.511 74.0716 316.38 74.6055C316.257 75.1393 316.195 75.7643 316.195 76.4805V77.291C316.195 78.0007 316.254 78.6224 316.371 79.1562C316.494 79.6901 316.677 80.1361 316.918 80.4941C317.165 80.8457 317.477 81.1126 317.855 81.2949C318.239 81.4707 318.692 81.5586 319.213 81.5586C319.577 81.5586 319.89 81.5293 320.15 81.4707C320.41 81.4056 320.625 81.3275 320.795 81.2363C320.97 81.1387 321.104 81.0475 321.195 80.9629V78.7559H318.812V76.4023H324.623ZM335.81 81.3633V84H328.232V81.3633H335.81ZM329.452 69.7812V84H326.025V69.7812H329.452ZM334.833 75.4258V77.9746H328.232V75.4258H334.833ZM335.839 69.7812V72.4277H328.232V69.7812H335.839ZM348.491 69.7812V84H345.073L340.044 75.1523V84H336.616V69.7812H340.044L345.073 78.6289V69.7812H348.491ZM358.145 79.1855H361.563C361.517 80.1751 361.25 81.0475 360.762 81.8027C360.274 82.5579 359.597 83.1471 358.731 83.5703C357.871 83.987 356.856 84.1953 355.684 84.1953C354.733 84.1953 353.884 84.0358 353.135 83.7168C352.393 83.3978 351.761 82.9388 351.241 82.3398C350.726 81.7409 350.332 81.015 350.059 80.1621C349.792 79.3092 349.659 78.349 349.659 77.2812V76.5098C349.659 75.4421 349.799 74.4818 350.079 73.6289C350.365 72.7695 350.769 72.0404 351.289 71.4414C351.817 70.8359 352.448 70.3737 353.184 70.0547C353.92 69.7357 354.737 69.5762 355.635 69.5762C356.872 69.5762 357.917 69.7975 358.77 70.2402C359.623 70.6829 360.284 71.2917 360.752 72.0664C361.221 72.8346 361.498 73.7103 361.582 74.6934H358.164C358.151 74.1595 358.06 73.7135 357.891 73.3555C357.722 72.9909 357.455 72.7174 357.09 72.5352C356.726 72.3529 356.241 72.2617 355.635 72.2617C355.212 72.2617 354.844 72.3398 354.532 72.4961C354.219 72.6523 353.959 72.8997 353.75 73.2383C353.542 73.5768 353.386 74.0163 353.282 74.5566C353.184 75.0905 353.135 75.735 353.135 76.4902V77.2812C353.135 78.0365 353.181 78.681 353.272 79.2148C353.363 79.7487 353.51 80.1849 353.711 80.5234C353.913 80.862 354.174 81.1126 354.493 81.2754C354.818 81.4316 355.215 81.5098 355.684 81.5098C356.205 81.5098 356.644 81.4284 357.002 81.2656C357.36 81.0964 357.637 80.8424 357.832 80.5039C358.028 80.1589 358.132 79.7194 358.145 79.1855ZM372.369 81.3633V84H364.791V81.3633H372.369ZM366.012 69.7812V84H362.584V69.7812H366.012ZM371.393 75.4258V77.9746H364.791V75.4258H371.393ZM372.398 69.7812V72.4277H364.791V69.7812H372.398Z" fill="white"/>
<path d="M262.109 414.77L258.643 426H254.961L260.186 411.781H262.52L262.109 414.77ZM264.98 426L261.504 414.77L261.055 411.781H263.418L268.672 426H264.98ZM264.844 420.697V423.344H257.549V420.697H264.844ZM269.117 411.781H274.712C275.806 411.781 276.757 411.944 277.564 412.27C278.371 412.595 278.993 413.077 279.429 413.715C279.872 414.353 280.093 415.141 280.093 416.078C280.093 416.892 279.966 417.572 279.712 418.119C279.459 418.666 279.104 419.118 278.648 419.477C278.199 419.828 277.675 420.118 277.076 420.346L275.953 420.98H271.255L271.236 418.334H274.712C275.149 418.334 275.51 418.256 275.796 418.1C276.083 417.943 276.298 417.722 276.441 417.436C276.591 417.143 276.666 416.794 276.666 416.391C276.666 415.98 276.591 415.629 276.441 415.336C276.291 415.043 276.07 414.818 275.777 414.662C275.49 414.506 275.136 414.428 274.712 414.428H272.545V426H269.117V411.781ZM276.9 426L273.755 419.711L277.388 419.691L280.572 425.854V426H276.9ZM287.96 411.781V426H284.532V411.781H287.96ZM292.237 411.781V414.428H280.353V411.781H292.237ZM296.735 411.781V426H293.317V411.781H296.735ZM301.975 411.781V426H298.547V411.781H301.975ZM307.502 417.699V420.336H300.998V417.699H307.502ZM308.059 411.781V414.428H300.998V411.781H308.059ZM312.527 411.781V426H309.109V411.781H312.527ZM322.425 421.186H325.843C325.798 422.175 325.531 423.048 325.043 423.803C324.554 424.558 323.877 425.147 323.011 425.57C322.152 425.987 321.136 426.195 319.964 426.195C319.014 426.195 318.164 426.036 317.416 425.717C316.673 425.398 316.042 424.939 315.521 424.34C315.007 423.741 314.613 423.015 314.339 422.162C314.073 421.309 313.939 420.349 313.939 419.281V418.51C313.939 417.442 314.079 416.482 314.359 415.629C314.645 414.77 315.049 414.04 315.57 413.441C316.097 412.836 316.729 412.374 317.464 412.055C318.2 411.736 319.017 411.576 319.916 411.576C321.153 411.576 322.198 411.798 323.05 412.24C323.903 412.683 324.564 413.292 325.033 414.066C325.502 414.835 325.778 415.71 325.863 416.693H322.445C322.432 416.16 322.341 415.714 322.171 415.355C322.002 414.991 321.735 414.717 321.371 414.535C321.006 414.353 320.521 414.262 319.916 414.262C319.492 414.262 319.125 414.34 318.812 414.496C318.5 414.652 318.239 414.9 318.031 415.238C317.823 415.577 317.666 416.016 317.562 416.557C317.464 417.09 317.416 417.735 317.416 418.49V419.281C317.416 420.036 317.461 420.681 317.552 421.215C317.643 421.749 317.79 422.185 317.992 422.523C318.194 422.862 318.454 423.113 318.773 423.275C319.099 423.432 319.496 423.51 319.964 423.51C320.485 423.51 320.925 423.428 321.283 423.266C321.641 423.096 321.918 422.842 322.113 422.504C322.308 422.159 322.412 421.719 322.425 421.186ZM330.507 411.781V426H327.089V411.781H330.507ZM338.52 414.77L335.054 426H331.372L336.596 411.781H338.93L338.52 414.77ZM341.391 426L337.915 414.77L337.466 411.781H339.829L345.083 426H341.391ZM341.255 420.697V423.344H333.96V420.697H341.255ZM354.922 423.363V426H347.735V423.363H354.922ZM348.955 411.781V426H345.528V411.781H348.955ZM259.727 434.781V449H256.309V434.781H259.727ZM273.414 434.781V449H269.996L264.966 440.152V449H261.539V434.781H264.966L269.996 443.629V434.781H273.414ZM281.573 434.781V449H278.146V434.781H281.573ZM285.851 434.781V437.428H273.966V434.781H285.851ZM296.491 446.363V449H288.913V446.363H296.491ZM290.134 434.781V449H286.706V434.781H290.134ZM295.514 440.426V442.975H288.913V440.426H295.514ZM296.52 434.781V437.428H288.913V434.781H296.52ZM306.692 446.363V449H299.504V446.363H306.692ZM300.725 434.781V449H297.297V434.781H300.725ZM311.18 434.781V449H307.762V434.781H311.18ZM324.623 441.402V447.242C324.382 447.509 324.011 447.796 323.509 448.102C323.015 448.401 322.39 448.658 321.634 448.873C320.879 449.088 319.99 449.195 318.968 449.195C318.024 449.195 317.168 449.046 316.4 448.746C315.632 448.44 314.971 447.994 314.418 447.408C313.871 446.816 313.448 446.093 313.148 445.24C312.855 444.381 312.709 443.398 312.709 442.291V441.5C312.709 440.393 312.858 439.41 313.158 438.551C313.457 437.691 313.877 436.969 314.418 436.383C314.964 435.79 315.606 435.341 316.341 435.035C317.084 434.729 317.897 434.576 318.783 434.576C320.091 434.576 321.156 434.785 321.976 435.201C322.796 435.611 323.418 436.181 323.841 436.91C324.265 437.633 324.522 438.469 324.613 439.42H321.322C321.257 438.951 321.133 438.554 320.951 438.229C320.775 437.896 320.521 437.646 320.189 437.477C319.857 437.301 319.427 437.213 318.9 437.213C318.49 437.213 318.115 437.301 317.777 437.477C317.445 437.652 317.162 437.919 316.927 438.277C316.693 438.629 316.511 439.072 316.38 439.605C316.257 440.139 316.195 440.764 316.195 441.48V442.291C316.195 443.001 316.254 443.622 316.371 444.156C316.494 444.69 316.677 445.136 316.918 445.494C317.165 445.846 317.477 446.113 317.855 446.295C318.239 446.471 318.692 446.559 319.213 446.559C319.577 446.559 319.89 446.529 320.15 446.471C320.41 446.406 320.625 446.327 320.795 446.236C320.97 446.139 321.104 446.048 321.195 445.963V443.756H318.812V441.402H324.623ZM335.81 446.363V449H328.232V446.363H335.81ZM329.452 434.781V449H326.025V434.781H329.452ZM334.833 440.426V442.975H328.232V440.426H334.833ZM335.839 434.781V437.428H328.232V434.781H335.839ZM348.491 434.781V449H345.073L340.044 440.152V449H336.616V434.781H340.044L345.073 443.629V434.781H348.491ZM358.145 444.186H361.563C361.517 445.175 361.25 446.048 360.762 446.803C360.274 447.558 359.597 448.147 358.731 448.57C357.871 448.987 356.856 449.195 355.684 449.195C354.733 449.195 353.884 449.036 353.135 448.717C352.393 448.398 351.761 447.939 351.241 447.34C350.726 446.741 350.332 446.015 350.059 445.162C349.792 444.309 349.659 443.349 349.659 442.281V441.51C349.659 440.442 349.799 439.482 350.079 438.629C350.365 437.77 350.769 437.04 351.289 436.441C351.817 435.836 352.448 435.374 353.184 435.055C353.92 434.736 354.737 434.576 355.635 434.576C356.872 434.576 357.917 434.798 358.77 435.24C359.623 435.683 360.284 436.292 360.752 437.066C361.221 437.835 361.498 438.71 361.582 439.693H358.164C358.151 439.16 358.06 438.714 357.891 438.355C357.722 437.991 357.455 437.717 357.09 437.535C356.726 437.353 356.241 437.262 355.635 437.262C355.212 437.262 354.844 437.34 354.532 437.496C354.219 437.652 353.959 437.9 353.75 438.238C353.542 438.577 353.386 439.016 353.282 439.557C353.184 440.09 353.135 440.735 353.135 441.49V442.281C353.135 443.036 353.181 443.681 353.272 444.215C353.363 444.749 353.51 445.185 353.711 445.523C353.913 445.862 354.174 446.113 354.493 446.275C354.818 446.432 355.215 446.51 355.684 446.51C356.205 446.51 356.644 446.428 357.002 446.266C357.36 446.096 357.637 445.842 357.832 445.504C358.028 445.159 358.132 444.719 358.145 444.186ZM372.369 446.363V449H364.791V446.363H372.369ZM366.012 434.781V449H362.584V434.781H366.012ZM371.393 440.426V442.975H364.791V440.426H371.393ZM372.398 434.781V437.428H364.791V434.781H372.398Z" fill="white"/>
<path d="M265.869 254.363V257H258.291V254.363H265.869ZM259.512 242.781V257H256.084V242.781H259.512ZM264.893 248.426V250.975H258.291V248.426H264.893ZM265.898 242.781V245.428H258.291V242.781H265.898ZM278.55 242.781V257H275.132L270.103 248.152V257H266.675V242.781H270.103L275.132 251.629V242.781H278.55ZM291.749 249.402V255.242C291.508 255.509 291.137 255.796 290.636 256.102C290.141 256.401 289.516 256.658 288.761 256.873C288.006 257.088 287.117 257.195 286.095 257.195C285.151 257.195 284.295 257.046 283.527 256.746C282.758 256.44 282.098 255.994 281.544 255.408C280.997 254.816 280.574 254.093 280.275 253.24C279.982 252.381 279.835 251.398 279.835 250.291V249.5C279.835 248.393 279.985 247.41 280.284 246.551C280.584 245.691 281.004 244.969 281.544 244.383C282.091 243.79 282.732 243.341 283.468 243.035C284.21 242.729 285.024 242.576 285.909 242.576C287.218 242.576 288.282 242.785 289.103 243.201C289.923 243.611 290.545 244.181 290.968 244.91C291.391 245.633 291.648 246.469 291.739 247.42H288.448C288.383 246.951 288.26 246.554 288.077 246.229C287.902 245.896 287.648 245.646 287.316 245.477C286.984 245.301 286.554 245.213 286.027 245.213C285.616 245.213 285.242 245.301 284.904 245.477C284.571 245.652 284.288 245.919 284.054 246.277C283.82 246.629 283.637 247.072 283.507 247.605C283.383 248.139 283.321 248.764 283.321 249.48V250.291C283.321 251.001 283.38 251.622 283.497 252.156C283.621 252.69 283.803 253.136 284.044 253.494C284.292 253.846 284.604 254.113 284.982 254.295C285.366 254.471 285.818 254.559 286.339 254.559C286.704 254.559 287.016 254.529 287.277 254.471C287.537 254.406 287.752 254.327 287.921 254.236C288.097 254.139 288.23 254.048 288.321 253.963V251.756H285.939V249.402H291.749ZM296.794 242.781V257H293.376V242.781H296.794ZM310.481 242.781V257H307.063L302.034 248.152V257H298.606V242.781H302.034L307.063 251.629V242.781H310.481ZM321.834 254.363V257H314.256V254.363H321.834ZM315.477 242.781V257H312.049V242.781H315.477ZM320.857 248.426V250.975H314.256V248.426H320.857ZM321.863 242.781V245.428H314.256V242.781H321.863ZM332.425 254.363V257H324.847V254.363H332.425ZM326.068 242.781V257H322.64V242.781H326.068ZM331.449 248.426V250.975H324.847V248.426H331.449ZM332.455 242.781V245.428H324.847V242.781H332.455ZM333.232 242.781H338.827C339.921 242.781 340.872 242.944 341.679 243.27C342.486 243.595 343.108 244.077 343.544 244.715C343.987 245.353 344.208 246.141 344.208 247.078C344.208 247.892 344.081 248.572 343.827 249.119C343.573 249.666 343.219 250.118 342.763 250.477C342.314 250.828 341.79 251.118 341.191 251.346L340.068 251.98H335.37L335.351 249.334H338.827C339.264 249.334 339.625 249.256 339.911 249.1C340.198 248.943 340.413 248.722 340.556 248.436C340.706 248.143 340.78 247.794 340.78 247.391C340.78 246.98 340.706 246.629 340.556 246.336C340.406 246.043 340.185 245.818 339.892 245.662C339.605 245.506 339.251 245.428 338.827 245.428H336.659V257H333.232V242.781ZM341.015 257L337.87 250.711L341.503 250.691L344.687 256.854V257H341.015ZM349.321 242.781V257H345.903V242.781H349.321ZM363.008 242.781V257H359.59L354.561 248.152V257H351.133V242.781H354.561L359.59 251.629V242.781H363.008ZM376.207 249.402V255.242C375.966 255.509 375.595 255.796 375.094 256.102C374.599 256.401 373.974 256.658 373.219 256.873C372.464 257.088 371.575 257.195 370.553 257.195C369.609 257.195 368.753 257.046 367.984 256.746C367.216 256.44 366.555 255.994 366.002 255.408C365.455 254.816 365.032 254.093 364.732 253.24C364.439 252.381 364.293 251.398 364.293 250.291V249.5C364.293 248.393 364.443 247.41 364.742 246.551C365.042 245.691 365.462 244.969 366.002 244.383C366.549 243.79 367.19 243.341 367.926 243.035C368.668 242.729 369.482 242.576 370.367 242.576C371.676 242.576 372.74 242.785 373.561 243.201C374.381 243.611 375.003 244.181 375.426 244.91C375.849 245.633 376.106 246.469 376.197 247.42H372.906C372.841 246.951 372.717 246.554 372.535 246.229C372.359 245.896 372.105 245.646 371.773 245.477C371.441 245.301 371.012 245.213 370.484 245.213C370.074 245.213 369.7 245.301 369.361 245.477C369.029 245.652 368.746 245.919 368.512 246.277C368.277 246.629 368.095 247.072 367.965 247.605C367.841 248.139 367.779 248.764 367.779 249.48V250.291C367.779 251.001 367.838 251.622 367.955 252.156C368.079 252.69 368.261 253.136 368.502 253.494C368.749 253.846 369.062 254.113 369.439 254.295C369.824 254.471 370.276 254.559 370.797 254.559C371.161 254.559 371.474 254.529 371.734 254.471C371.995 254.406 372.21 254.327 372.379 254.236C372.555 254.139 372.688 254.048 372.779 253.963V251.756H370.396V249.402H376.207Z" fill="white"/>
</svg>
