<svg width="462" height="410" viewBox="0 0 462 410" fill="none" xmlns="http://www.w3.org/2000/svg">
<path d="M231 153L115 74.7481L231 0L346 74.7481L231 153Z" fill="url(#paint0_linear_419_13)"/>
<path fill-rule="evenodd" clip-rule="evenodd" d="M115 227.748L231 306V153L115 227.748Z" fill="url(#paint1_angular_419_13)"/>
<path d="M231 306L346 227.748L231 153V306Z" fill="url(#paint2_angular_419_13)"/>
<path d="M231 153L346 227.748V74.7613L231 153Z" fill="url(#paint3_angular_419_13)"/>
<path d="M115 227.748L231 153L115 74.7613L115 227.748Z" fill="url(#paint4_angular_419_13)"/>
<path d="M347 257L231 178.748L347 104L462 178.748L347 257Z" fill="url(#paint5_linear_419_13)"/>
<path fill-rule="evenodd" clip-rule="evenodd" d="M231 331.748L347 410V257L231 331.748Z" fill="url(#paint6_linear_419_13)"/>
<path d="M347 410L462 331.748L347 257V410Z" fill="url(#paint7_linear_419_13)"/>
<path d="M347 257L462 331.748V178.761L347 257Z" fill="url(#paint8_linear_419_13)"/>
<path d="M231 331.748L347 257L231 178.761L231 331.748Z" fill="url(#paint9_linear_419_13)"/>
<path d="M347 410V257" stroke="url(#paint10_linear_419_13)" stroke-width="0.2"/>
<path d="M116 257L0 178.748L116 104L231 178.748L116 257Z" fill="url(#paint11_linear_419_13)"/>
<path fill-rule="evenodd" clip-rule="evenodd" d="M0 331.748L116 410L116 257L0 331.748Z" fill="url(#paint12_linear_419_13)"/>
<path d="M116 410L231 331.748L116 257L116 410Z" fill="url(#paint13_linear_419_13)"/>
<path d="M116 257L231 331.748L231 178.761L116 257Z" fill="url(#paint14_linear_419_13)"/>
<path d="M0 331.748L116 257L0 178.761L0 331.748Z" fill="url(#paint15_linear_419_13)"/>
<path d="M116 410L116 257" stroke="url(#paint16_linear_419_13)" stroke-width="0.2"/>
<path d="M144.764 276.875H158.194C160.819 276.875 163.1 277.266 165.038 278.047C166.975 278.828 168.467 279.984 169.514 281.516C170.577 283.047 171.108 284.938 171.108 287.188C171.108 289.141 170.803 290.773 170.194 292.086C169.584 293.398 168.733 294.484 167.639 295.344C166.561 296.188 165.303 296.883 163.866 297.43L161.17 298.953H149.897L149.85 292.602H158.194C159.241 292.602 160.108 292.414 160.795 292.039C161.483 291.664 161.998 291.133 162.342 290.445C162.702 289.742 162.881 288.906 162.881 287.938C162.881 286.953 162.702 286.109 162.342 285.406C161.983 284.703 161.452 284.164 160.748 283.789C160.061 283.414 159.209 283.227 158.194 283.227H152.991V311H144.764V276.875ZM163.444 311L155.897 295.906L164.616 295.859L172.256 310.648V311H163.444Z" fill="white"/>
<path d="M189.098 284.047L180.777 311H171.941L184.48 276.875H190.082L189.098 284.047ZM195.988 311L187.644 284.047L186.566 276.875H192.238L204.848 311H195.988ZM195.66 298.273V304.625H178.152V298.273H195.66Z" fill="white"/>
<path d="M214.658 276.875V311H206.454V276.875H214.658Z" fill="white"/>
<path d="M238.413 299.445H246.616C246.507 301.82 245.866 303.914 244.694 305.727C243.522 307.539 241.897 308.953 239.819 309.969C237.757 310.969 235.319 311.469 232.507 311.469C230.225 311.469 228.186 311.086 226.389 310.32C224.608 309.555 223.092 308.453 221.842 307.016C220.608 305.578 219.663 303.836 219.007 301.789C218.366 299.742 218.046 297.438 218.046 294.875V293.023C218.046 290.461 218.382 288.156 219.053 286.109C219.741 284.047 220.71 282.297 221.96 280.859C223.225 279.406 224.741 278.297 226.507 277.531C228.272 276.766 230.233 276.383 232.389 276.383C235.358 276.383 237.866 276.914 239.913 277.977C241.96 279.039 243.546 280.5 244.671 282.359C245.796 284.203 246.46 286.305 246.663 288.664H238.46C238.428 287.383 238.21 286.312 237.803 285.453C237.397 284.578 236.757 283.922 235.882 283.484C235.007 283.047 233.842 282.828 232.389 282.828C231.374 282.828 230.491 283.016 229.741 283.391C228.991 283.766 228.366 284.359 227.866 285.172C227.366 285.984 226.991 287.039 226.741 288.336C226.507 289.617 226.389 291.164 226.389 292.977V294.875C226.389 296.688 226.499 298.234 226.717 299.516C226.936 300.797 227.288 301.844 227.772 302.656C228.257 303.469 228.882 304.07 229.647 304.461C230.428 304.836 231.382 305.023 232.507 305.023C233.757 305.023 234.811 304.828 235.671 304.438C236.53 304.031 237.194 303.422 237.663 302.609C238.132 301.781 238.382 300.727 238.413 299.445Z" fill="white"/>
<path d="M263.527 284.047L255.207 311H246.371L258.91 276.875H264.512L263.527 284.047ZM270.418 311L262.074 284.047L260.996 276.875H266.668L279.277 311H270.418ZM270.09 298.273V304.625H252.582V298.273H270.09Z" fill="white"/>
<path d="M284.423 276.875H291.127L298.744 300.617L306.361 276.875H313.064L301.463 311H296.025L284.423 276.875ZM280.345 276.875H287.283L288.572 303.031V311H280.345V276.875ZM310.205 276.875H317.166V311H308.916V303.031L310.205 276.875Z" fill="white"/>
<defs>
<linearGradient id="paint0_linear_419_13" x1="230" y1="153" x2="230" y2="9.48578e-08" gradientUnits="userSpaceOnUse">
<stop offset="0.126231" stop-color="#443D51"/>
<stop offset="1" stop-color="#966DD9"/>
</linearGradient>
<radialGradient id="paint1_angular_419_13" cx="0" cy="0" r="1" gradientUnits="userSpaceOnUse" gradientTransform="translate(231 163.5) rotate(-90) scale(28 7.90674)">
<stop stop-color="#514662"/>
<stop offset="1" stop-color="#9B5EFF"/>
</radialGradient>
<radialGradient id="paint2_angular_419_13" cx="0" cy="0" r="1" gradientUnits="userSpaceOnUse" gradientTransform="translate(231 163.5) rotate(-90) scale(28 7.90674)">
<stop stop-color="#514662"/>
<stop offset="1" stop-color="#9B5EFF"/>
</radialGradient>
<radialGradient id="paint3_angular_419_13" cx="0" cy="0" r="1" gradientUnits="userSpaceOnUse" gradientTransform="translate(231 163.5) rotate(-90) scale(28 7.90674)">
<stop stop-color="#514662"/>
<stop offset="1" stop-color="#9B5EFF"/>
</radialGradient>
<radialGradient id="paint4_angular_419_13" cx="0" cy="0" r="1" gradientUnits="userSpaceOnUse" gradientTransform="translate(231 163.5) rotate(-90) scale(28 7.90674)">
<stop stop-color="#514662"/>
<stop offset="1" stop-color="#9B5EFF"/>
</radialGradient>
<linearGradient id="paint5_linear_419_13" x1="346" y1="257" x2="346" y2="104" gradientUnits="userSpaceOnUse">
<stop offset="0.126231" stop-color="#495352"/>
<stop offset="1" stop-color="#95BBB7"/>
</linearGradient>
<linearGradient id="paint6_linear_419_13" x1="346" y1="410" x2="346" y2="179" gradientUnits="userSpaceOnUse">
<stop stop-color="#424E4C" stop-opacity="0.46"/>
<stop offset="1" stop-color="#8BA3A0"/>
</linearGradient>
<linearGradient id="paint7_linear_419_13" x1="346" y1="410" x2="346" y2="179" gradientUnits="userSpaceOnUse">
<stop stop-color="#424E4C" stop-opacity="0.46"/>
<stop offset="1" stop-color="#8BA3A0"/>
</linearGradient>
<linearGradient id="paint8_linear_419_13" x1="346" y1="410" x2="346" y2="179" gradientUnits="userSpaceOnUse">
<stop stop-color="#424E4C" stop-opacity="0.46"/>
<stop offset="1" stop-color="#8BA3A0"/>
</linearGradient>
<linearGradient id="paint9_linear_419_13" x1="346" y1="410" x2="346" y2="179" gradientUnits="userSpaceOnUse">
<stop stop-color="#424E4C" stop-opacity="0.46"/>
<stop offset="1" stop-color="#8BA3A0"/>
</linearGradient>
<linearGradient id="paint10_linear_419_13" x1="344.999" y1="257" x2="344.999" y2="410" gradientUnits="userSpaceOnUse">
<stop offset="0.0212443" stop-color="#495352"/>
<stop offset="1" stop-color="#545A5A"/>
</linearGradient>
<linearGradient id="paint11_linear_419_13" x1="115" y1="257" x2="115" y2="104" gradientUnits="userSpaceOnUse">
<stop offset="0.0520833" stop-color="#503012"/>
<stop offset="1" stop-color="#EFBC8C"/>
</linearGradient>
<linearGradient id="paint12_linear_419_13" x1="115" y1="402" x2="115" y2="179" gradientUnits="userSpaceOnUse">
<stop stop-color="#694727" stop-opacity="0.28"/>
<stop offset="1" stop-color="#E19D5E"/>
</linearGradient>
<linearGradient id="paint13_linear_419_13" x1="115" y1="402" x2="115" y2="179" gradientUnits="userSpaceOnUse">
<stop stop-color="#694727" stop-opacity="0.28"/>
<stop offset="1" stop-color="#E19D5E"/>
</linearGradient>
<linearGradient id="paint14_linear_419_13" x1="115" y1="402" x2="115" y2="179" gradientUnits="userSpaceOnUse">
<stop stop-color="#694727" stop-opacity="0.28"/>
<stop offset="1" stop-color="#E19D5E"/>
</linearGradient>
<linearGradient id="paint15_linear_419_13" x1="115" y1="402" x2="115" y2="179" gradientUnits="userSpaceOnUse">
<stop stop-color="#694727" stop-opacity="0.28"/>
<stop offset="1" stop-color="#E19D5E"/>
</linearGradient>
<linearGradient id="paint16_linear_419_13" x1="116" y1="257" x2="116" y2="410" gradientUnits="userSpaceOnUse">
<stop offset="0.0212443" stop-color="#3F733E"/>
<stop offset="1" stop-color="#626262"/>
</linearGradient>
</defs>
</svg>
